<svg xmlns="http://www.w3.org/2000/svg" width="46.943" height="50" viewBox="0 0 46.943 50"><defs><style>.a{fill:#2980b9;opacity:0.25;}.b{fill:#95c0dc;}.c{fill:#7986cb;}.d{fill:#fff;}.e{fill:#fe8f01;}</style></defs><g transform="translate(-17.842 -4)"><path class="a" d="M49.5,4V51.5L45.75,54,42,51.5,38.25,54,34.5,51.5,30.75,54,27,51.5,23.25,54,19.5,51.5,15.75,54,12,51.5V4l3.75,2.5L19.5,4l3.75,2.5L27,4l3.75,2.5L34.5,4l3.75,2.5L42,4l3.75,2.5Z" transform="translate(5.842 0)"/><rect class="b" width="15.781" height="3.156" transform="translate(21.519 17.414)"/><rect class="c" width="5.523" height="3.156" transform="translate(46.372 17.414)"/><rect class="b" width="13.414" height="2.367" transform="translate(21.519 22.937)"/><rect class="c" width="5.523" height="2.367" transform="translate(46.372 22.937)"/><rect class="b" width="14.992" height="2.367" transform="translate(21.519 27.671)"/><rect class="c" width="5.523" height="2.367" transform="translate(46.372 27.671)"/><rect class="b" width="17.359" height="3.156" transform="translate(21.519 32.405)"/><rect class="c" width="5.523" height="3.156" transform="translate(46.372 32.405)"/><rect class="b" width="23.671" height="2.367" transform="translate(21.519 11.89)"/><rect class="d" width="5.523" height="2.367" transform="translate(46.372 45.03)"/><rect class="d" width="11.835" height="2.367" transform="translate(31.38 45.03)"/><path class="b" d="M23.413,31v2.5H15V31Z" transform="translate(6.519 6.75)"/><g transform="translate(41.488 15.649)"><path class="e" d="M25.3,25.649A11.649,11.649,0,1,1,13.649,14,11.683,11.683,0,0,1,25.3,25.649" transform="translate(-2 -14)"/><path class="d" d="M16.521,28a3.248,3.248,0,0,1-3.262,3.262v1.631H12.095V31.262A3.586,3.586,0,0,1,8.6,27.418h2.33a1.733,1.733,0,0,0,1.747,1.98c1.514,0,1.514-1.165,1.514-1.4,0-2.563-5.242-1.514-5.242-5.591a3.28,3.28,0,0,1,3.262-3.262V17.4h1.281v1.747a3.409,3.409,0,0,1,3.029,3.728h-2.33c0-.7-.116-1.98-1.514-1.98A1.374,1.374,0,0,0,11.4,22.409c0,2.446,5.125,1.514,5.125,5.591" transform="translate(-0.912 -13.439)"/></g></g></svg>