<svg xmlns="http://www.w3.org/2000/svg" width="46.945" height="54.472" viewBox="0 0 46.945 54.472"><defs><style>.a{fill:#bf360c;}.b{fill:#6ea8cc;}.c{fill:#784719;}.d{fill:#c1dbeb;}.e{fill:#94c0dc;}.f{fill:#fff;}.g{fill:#fe9003;}</style></defs><g transform="translate(-8 -4)"><path class="a" d="M16,15H35.789V37.263H16Z" transform="translate(1.894 2.605)"/><path class="a" d="M16,15H35.789V37.263H16Z" transform="translate(1.894 2.605)"/><path class="b" d="M16,15H35.789V37.263H16Z" transform="translate(1.894 2.605)"/><path class="c" d="M28.894,21.237A1.237,1.237,0,1,0,30.131,20a1.239,1.239,0,0,0-1.237,1.237m-9.894,0A1.237,1.237,0,1,0,20.237,20,1.239,1.239,0,0,0,19,21.237" transform="translate(2.605 3.789)"/><path class="c" d="M28.894,21.237A1.237,1.237,0,1,0,30.131,20a1.239,1.239,0,0,0-1.237,1.237m-9.894,0A1.237,1.237,0,1,0,20.237,20,1.239,1.239,0,0,0,19,21.237" transform="translate(2.605 3.789)"/><path class="d" d="M33.973,31s-1.237,4.947-6.184,4.947S21.6,31,21.6,31,8,33.454,8,47.079H47.578C47.578,33.5,33.973,31,33.973,31" transform="translate(0 6.394)"/><path class="e" d="M25.184,39.842c-2.71,0-6.184-7.421-6.184-7.421V25H31.368v7.421s-3.474,7.421-6.184,7.421" transform="translate(2.605 4.973)"/><path class="e" d="M25.184,39.658C19.715,39.658,19,31,19,31s3.1,4.947,6.184,4.947S31.368,31,31.368,31s-.715,8.658-6.184,8.658" transform="translate(2.605 6.394)"/><path class="e" d="M25.646,42.131c5.87,0,8.126-6.324,8.595-10.426A16.793,16.793,0,0,0,31.83,31s-.715,8.658-6.184,8.658S19.462,31,19.462,31a16.5,16.5,0,0,0-2.411.7C17.515,35.8,19.771,42.131,25.646,42.131Z" transform="translate(2.143 6.394)"/><path class="d" d="M37.263,15.132c0-9.446-22.263-6.151-22.263,0V23.79a11.131,11.131,0,0,0,22.263,0Z" transform="translate(1.658 1.236)"/><path class="e" d="M27.552,4C20.04,4,9,8.208,9,32.8l8.658,5.832V22.552L32.5,13.894l4.947,6.184V38.631L46.1,31.21c0-4.976-.836-24.736-13.6-24.736L31.263,4Z" transform="translate(0.237)"/><path class="e" d="M28.894,21.237a1.237,1.237,0,1,1,1.237,1.237,1.239,1.239,0,0,1-1.237-1.237m-9.894,0A1.237,1.237,0,1,0,20.237,20,1.239,1.239,0,0,0,19,21.237" transform="translate(2.605 3.789)"/><g transform="translate(85.103 92.155) rotate(180)"><circle class="f" cx="8.5" cy="8.5" r="8.5" transform="translate(34 37.42)"/><path class="g" d="M48,60.394A12.394,12.394,0,1,0,60.394,48,12.395,12.395,0,0,0,48,60.394ZM60.671,54.95a.953.953,0,0,1,.005,1.348l-3.118,3.142h7.96a.953.953,0,1,1,0,1.907h-7.96l3.118,3.142a.954.954,0,0,1-1.355,1.343l-4.731-4.767a.953.953,0,0,1,0-1.343l4.731-4.767a.953.953,0,0,1,1.35-.005Z" transform="translate(-17.843 -14.317)"/></g></g></svg>