<svg xmlns="http://www.w3.org/2000/svg" width="47.345" height="50" viewBox="0 0 47.345 50"><defs><style>.a{fill:#c9dfed;}.b{fill:#fff;}.c{fill:#95c0dc;}.d{fill:#fe8f01;}</style></defs><g transform="translate(-445 -1580)"><g transform="translate(437 1577)"><path class="a" d="M46.1,53H8V3H46.1Z"/><path class="b" d="M12,36H40.571v5.952H12Z" transform="translate(0.762 6.286)"/><path class="c" d="M12,7H40.571v5.952H12Z" transform="translate(0.762 0.762)"/><path class="b" d="M12,15H40.571V36.429H12Z" transform="translate(0.762 2.286)"/></g><g transform="translate(468.645 1593.649)"><path class="b" d="M16.521,28a3.248,3.248,0,0,1-3.262,3.262v1.631H12.095V31.262A3.586,3.586,0,0,1,8.6,27.418h2.33a1.733,1.733,0,0,0,1.747,1.98c1.514,0,1.514-1.165,1.514-1.4,0-2.563-5.242-1.514-5.242-5.591a3.28,3.28,0,0,1,3.262-3.262V17.4h1.281v1.747a3.409,3.409,0,0,1,3.029,3.728h-2.33c0-.7-.116-1.98-1.514-1.98A1.374,1.374,0,0,0,11.4,22.409c0,2.446,5.125,1.514,5.125,5.591" transform="translate(-0.912 -13.439)"/><circle class="b" cx="9.5" cy="9.5" r="9.5" transform="translate(2.355 2.351)"/><path class="d" d="M67.649,56A11.649,11.649,0,1,0,79.3,67.649,11.662,11.662,0,0,0,67.649,56Zm0,4.776a1.514,1.514,0,1,1-1.514,1.514A1.514,1.514,0,0,1,67.649,60.776Zm2.8,13.163H65.319a.932.932,0,0,1,0-1.864H66.95V66.95h-.932a.932.932,0,0,1,0-1.864h1.864a.932.932,0,0,1,.932.932v6.057h1.631a.932.932,0,0,1,0,1.864Z" transform="translate(-55.598 -56)"/></g></g></svg>