<svg xmlns="http://www.w3.org/2000/svg" width="25.136" height="27.782" viewBox="0 0 25.136 27.782"><defs><style>.a{fill:#fff;}</style></defs><path class="a" d="M10.977,4A2.98,2.98,0,0,0,8,6.977V27.482a2.98,2.98,0,0,0,2.977,2.977h8.692a8.591,8.591,0,0,1,9.5-13.888V14.584H21.56a2.98,2.98,0,0,1-2.977-2.977V4Zm9.591.581v7.026a.993.993,0,0,0,.992.992h7.026ZM25.86,17.229a7.276,7.276,0,1,0,7.276,7.276A7.276,7.276,0,0,0,25.86,17.229Zm0,1.984a.662.662,0,0,1,.661.661v3.969H30.49a.661.661,0,1,1,0,1.323H26.521v3.969a.661.661,0,0,1-1.323,0V25.167H21.229a.661.661,0,0,1,0-1.323H25.2V19.875A.662.662,0,0,1,25.86,19.214Z" transform="translate(-8 -4)"/></svg>
