<svg xmlns="http://www.w3.org/2000/svg" width="17.291" height="17.291" viewBox="0 0 17.291 17.291"><defs><style>.a{fill:#fe8f01;}</style></defs><path class="a" d="M8.642,6A2.644,2.644,0,0,0,6,8.642V20.649a2.644,2.644,0,0,0,2.642,2.642h.24V16.326a1.683,1.683,0,0,1,1.681-1.681h8.165a1.683,1.683,0,0,1,1.681,1.681v6.964h.24a2.644,2.644,0,0,0,2.642-2.642V10.563a.722.722,0,0,0-.242-.538L18.726,6.182a.711.711,0,0,0-.238-.138v4.038a1.683,1.683,0,0,1-1.681,1.681H11.043a1.683,1.683,0,0,1-1.681-1.681V6ZM10.8,6v4.082a.24.24,0,0,0,.24.24h5.764a.24.24,0,0,0,.24-.24V6Zm-.24,10.086a.24.24,0,0,0-.24.24v6.964h8.645V16.326a.24.24,0,0,0-.24-.24Z" transform="translate(-6 -6)"/></svg>
