<svg xmlns="http://www.w3.org/2000/svg" width="14.4" height="16" viewBox="0 0 14.4 16"><defs><style>.a{fill:#2980b9;}</style></defs><path class="a" d="M13.2,4a2.409,2.409,0,0,0-2.4,2.4H6.6a.6.6,0,1,0,0,1.2h1V17.8A2.2,2.2,0,0,0,9.8,20h6.8a2.2,2.2,0,0,0,2.2-2.2V7.6h1a.6.6,0,1,0,0-1.2H15.6A2.409,2.409,0,0,0,13.2,4Zm0,1.2a1.191,1.191,0,0,1,1.2,1.2H12A1.191,1.191,0,0,1,13.2,5.2ZM11.4,9.6a.6.6,0,0,1,.6.6v6a.6.6,0,1,1-1.2,0v-6A.6.6,0,0,1,11.4,9.6Zm3.6,0a.6.6,0,0,1,.6.6v6a.6.6,0,1,1-1.2,0v-6A.6.6,0,0,1,15,9.6Z" transform="translate(-6 -4)"/></svg>